<mxfile host="app.diagrams.net" modified="2023-10-10T19:40:19.333Z" agent="Mozilla/5.0 (Windows NT 10.0; Win64; x64) AppleWebKit/537.36 (KHTML, like Gecko) Chrome/117.0.0.0 Safari/537.36 Edg/117.0.2045.60" version="21.6.5" etag="sCeLuDUyJOcxOgLan437" type="github">
  <diagram name="PÃ¡gina-1" id="SinuB1TxUPLO7DcGhmeK">
    <mxGraphModel>
      <root>
        <mxCell id="0" />
        <mxCell id="1" parent="0" />
      </root>
    </mxGraphModel>
  </diagram>
</mxfile>
